<?xml version="1.0" encoding="iso-8859-1"?>
<!-- Generator: Adobe Illustrator 16.0.0, SVG Export Plug-In . SVG Version: 6.00 Build 0)  -->
<!DOCTYPE svg PUBLIC "-//W3C//DTD SVG 1.1//EN" "http://www.w3.org/Graphics/SVG/1.1/DTD/svg11.dtd">
<svg version="1.1" id="Capa_1" xmlns="http://www.w3.org/2000/svg" xmlns:xlink="http://www.w3.org/1999/xlink" x="0px" y="0px"
	 width="351.301px" height="351.301px" viewBox="0 0 351.301 351.301" style="enable-background:new 0 0 351.301 351.301;"
	 xml:space="preserve">
<g>
	<g>
		<path d="M195.65,72.935V33.74c0-11.046-8.955-20-20-20c-11.046,0-20,8.954-20,20v39.194C139.269,73.124,126,86.5,126,102.925v10
			c0,16.425,13.27,29.802,29.65,29.991v174.644c0,11.046,8.954,20,20,20c11.045,0,20-8.954,20-20V142.917
			c16.381-0.189,29.649-13.566,29.649-29.991v-10C225.3,86.501,212.031,73.124,195.65,72.935z"/>
		<path d="M321.65,168.268V33.74c0-11.046-8.953-20-20-20c-11.045,0-20,8.954-20,20v134.527c-16.381,0.189-29.65,13.566-29.65,29.99
			v10c0,16.426,13.27,29.803,29.65,29.992v79.311c0,11.046,8.955,20,20,20c11.047,0,20-8.954,20-20V238.25
			c16.381-0.188,29.65-13.565,29.65-29.99v-10C351.301,181.834,338.031,168.457,321.65,168.268z"/>
		<path d="M69.65,128.935V33.74c0-11.046-8.955-20-20-20c-11.047,0-20,8.954-20,20v95.194C13.269,129.124,0,142.5,0,158.925v10
			c0,16.425,13.27,29.802,29.65,29.991v118.645c0,11.046,8.953,20,20,20c11.045,0,20-8.954,20-20V198.918
			c16.381-0.189,29.65-13.566,29.65-29.992v-10C99.3,142.501,86.031,129.124,69.65,128.935z"/>
	</g>
</g>
<g>
</g>
<g>
</g>
<g>
</g>
<g>
</g>
<g>
</g>
<g>
</g>
<g>
</g>
<g>
</g>
<g>
</g>
<g>
</g>
<g>
</g>
<g>
</g>
<g>
</g>
<g>
</g>
<g>
</g>
</svg>
