<?xml version="1.0" encoding="iso-8859-1"?>
<!-- Generator: Adobe Illustrator 16.0.0, SVG Export Plug-In . SVG Version: 6.00 Build 0)  -->
<!DOCTYPE svg PUBLIC "-//W3C//DTD SVG 1.1//EN" "http://www.w3.org/Graphics/SVG/1.1/DTD/svg11.dtd">
<svg version="1.1" id="Capa_1" xmlns="http://www.w3.org/2000/svg" xmlns:xlink="http://www.w3.org/1999/xlink" x="0px" y="0px"
	 width="22.127px" height="22.127px" viewBox="0 0 22.127 22.127" style="enable-background:new 0 0 22.127 22.127;"
	 xml:space="preserve">
<g>
	<g>
		<path d="M1.986,16.6c0-1.119,0-14.221,0-15.341c1.108,0,12.928,0,14.036,0c0,0.396,0,2.292,0,4.623
			c0.271-0.05,0.549-0.084,0.834-0.084c0.146,0,0.284,0.03,0.428,0.043V0H0.725v17.859h10.414V16.6
			C7.349,16.6,2.664,16.6,1.986,16.6z"/>
		<path d="M3.779,9.589h8.553c0.084-0.471,0.25-0.909,0.468-1.319H3.779V9.589z"/>
		<rect x="3.779" y="4.146" width="10.448" height="1.319"/>
		<path d="M3.779,13.714h8.867c0.237-0.144,0.49-0.261,0.761-0.333c-0.257-0.299-0.468-0.635-0.648-0.986H3.779V13.714z"/>
		<path d="M16.857,13.846c1.904,0,3.438-1.539,3.438-3.437c0-1.9-1.534-3.438-3.438-3.438c-1.896,0-3.431,1.538-3.431,3.438
			C13.426,12.307,14.961,13.846,16.857,13.846z"/>
		<path d="M19.616,14.404h-5.51c-0.984,0-1.79,0.902-1.79,2.013v5.532c0,0.061,0.028,0.115,0.032,0.178h9.021
			c0.004-0.062,0.032-0.117,0.032-0.178v-5.532C21.405,15.309,20.601,14.404,19.616,14.404z"/>
	</g>
</g>
<g>
</g>
<g>
</g>
<g>
</g>
<g>
</g>
<g>
</g>
<g>
</g>
<g>
</g>
<g>
</g>
<g>
</g>
<g>
</g>
<g>
</g>
<g>
</g>
<g>
</g>
<g>
</g>
<g>
</g>
</svg>
